<svg width="64" height="64" viewBox="0 0 64 64" fill="none" xmlns="http://www.w3.org/2000/svg">
<g clip-path="url(#clip0)">
<path fill-rule="evenodd" clip-rule="evenodd" d="M63.7786 31.811C63.7786 49.3693 49.5448 63.6031 31.9865 63.6031C14.4279 63.6031 0.194145 49.3693 0.194145 31.811C0.194145 14.2527 14.4279 0.0189209 31.9865 0.0189209C49.5448 0.0189209 63.7786 14.2527 63.7786 31.811Z" fill="#008FAF"/>
<path fill-rule="evenodd" clip-rule="evenodd" d="M32.0392 63.6029C14.4809 63.6029 0.247108 49.3691 0.247108 31.8108C0.247108 14.2522 14.4809 0.0184326 32.0392 0.0184326" fill="#00A4CA"/>
<path fill-rule="evenodd" clip-rule="evenodd" d="M29.2006 29.395C28.9678 28.3183 28.5861 27.2511 28.2325 26.3105C28.2467 26.3105 27.7868 25.3302 27.7373 25.2738C27.0976 23.1959 25.8196 21.5985 23.8078 20.5389C24.4498 21.2122 24.8781 22.0008 25.0811 22.9095C25.0936 22.9645 25.1144 22.9848 25.1709 22.9935C25.806 23.0891 26.2491 23.6703 26.166 24.2946C26.0805 24.9344 25.5173 25.3812 24.8784 25.3166C24.3215 25.2602 23.8981 24.8301 23.8318 24.2541C23.7725 23.7372 24.1093 23.2185 24.6181 23.0439C24.647 23.0341 24.676 23.0242 24.7093 23.0132C24.5454 22.2666 24.2251 21.5997 23.7473 21.0086C23.44 20.6284 23.0832 20.3041 22.6691 20.031C21.8229 21.5302 20.982 23.0199 20.1358 24.5185C19.3342 23.0228 18.5372 21.5351 17.7356 20.04C17.5714 20.1013 17.4142 20.1581 17.2592 20.2201C17.2123 20.2386 17.1666 20.2661 17.1278 20.2983C16.7116 20.6466 16.3864 21.0674 16.1423 21.5508C15.8796 22.0706 15.727 22.6234 15.6572 23.1997C15.6338 23.394 15.6227 23.5895 15.6057 23.7864C15.6326 23.7922 15.6482 23.7968 15.6642 23.7989C15.8365 23.82 15.9975 23.8753 16.1492 23.9587C16.4831 24.1426 16.7273 24.4163 16.9175 24.74C17.2361 25.2816 17.3722 25.8735 17.3948 26.4964C17.398 26.5842 17.3759 26.6424 17.3056 26.6945C17.2086 26.7669 17.1199 26.8503 17.0438 26.9149C17.0562 26.9965 17.0777 27.0614 17.0736 27.1248C17.0649 27.2598 16.9644 27.3666 16.8373 27.3944C16.7084 27.4225 16.5752 27.3643 16.508 27.2502C16.4406 27.1361 16.4547 26.9922 16.5431 26.8929C16.6328 26.7921 16.7672 26.7652 16.8999 26.8182C16.9181 26.8254 16.9479 26.8234 16.9647 26.8129C17.0328 26.7701 17.0947 26.7168 17.1645 26.678C17.2335 26.6395 17.2517 26.5908 17.2488 26.5135C17.2393 26.2367 17.2048 25.9601 17.1367 25.6914C17.1017 25.5538 17.0583 25.4183 17.0056 25.2865C16.9517 25.1518 16.888 25.0948 16.8005 24.9853C16.7701 24.9471 16.7432 24.9063 16.7128 24.8678C16.6421 24.7783 16.5538 24.7041 16.4663 24.6309C16.3473 24.531 16.1515 24.4539 16.0065 24.3957C15.4496 24.1719 14.7768 24.341 14.337 24.7319C13.8696 25.1475 13.7595 25.9954 13.754 26.5769C13.7537 26.5986 13.7711 26.6273 13.789 26.6412C13.8528 26.6902 13.922 26.7319 13.986 26.7808C14.0222 26.8086 14.054 26.8127 14.0983 26.8008C14.262 26.7571 14.4293 26.863 14.4661 27.0287C14.5029 27.1949 14.3972 27.3603 14.2324 27.3944C14.0633 27.4298 13.8982 27.3177 13.8675 27.15C13.8502 27.0545 13.8814 26.9725 13.9341 26.8955C13.8354 26.8115 13.7392 26.7333 13.6477 26.6496C13.6257 26.6293 13.6057 26.5905 13.6083 26.5624C13.6306 26.3096 13.6422 26.0545 13.6874 25.8057C13.7766 25.316 13.9605 24.8625 14.2692 24.467C14.5046 24.1652 14.7922 23.9338 15.169 23.8316C15.2107 23.8206 15.2246 23.8049 15.2263 23.7621C15.2428 23.3859 15.2865 23.0132 15.3696 22.6454C15.5509 21.8438 15.8932 21.1259 16.4915 20.4963C16.4524 20.5155 16.4269 20.5273 16.402 20.5401C15.1455 21.2006 14.1568 22.1444 13.4317 23.3636C13.1511 23.8354 12.9324 24.3277 12.7546 24.8272C12.0634 26.2882 11.558 27.7944 11.1251 29.3478C10.6015 31.2263 8.89985 37.5418 12.4682 37.655C15.5095 37.7616 14.1968 34.6986 15.714 29.4193C15.7357 29.4277 15.7554 29.4416 15.7771 29.4497C15.7771 30.4441 15.7774 34.0073 15.7783 34.0073C15.4976 39.2072 15.3812 44.3863 15.4331 49.4018C15.4452 50.6105 16.4293 51.5812 17.6348 51.5812C20.8461 51.5812 19.3634 49.1686 20.1821 34.133C20.9875 48.9367 19.5406 51.5494 22.7062 51.5812C23.9763 51.5812 24.9193 50.5778 24.9311 49.4018C24.9833 44.3866 24.8668 39.2078 24.5865 34.0073C24.5865 32.6074 24.3227 30.9107 24.6311 29.5647C24.8535 29.6982 25.0142 29.9044 25.1813 30.1233C25.2975 30.2747 25.4107 30.4392 25.4362 30.6283C25.4814 30.9663 25.2404 31.2683 25.0145 31.5235C24.8477 31.712 24.6792 31.902 24.475 32.0491C23.908 32.4577 23.1044 32.5092 22.6436 33.0348C22.3506 33.3693 22.2591 33.8301 22.1817 34.2682C22.0326 35.1118 22.5362 35.7851 23.3893 35.8902C25.1388 36.1054 26.8856 35.2534 28.1491 34.0244C28.7656 33.4246 29.3138 32.6833 29.3955 31.827C29.4696 31.0456 29.3784 30.2174 29.2006 29.395Z" fill="#FEFEFE"/>
<path fill-rule="evenodd" clip-rule="evenodd" d="M24.5644 24.1509C24.5644 24.364 24.7376 24.5369 24.951 24.5369C25.1645 24.5366 25.3368 24.3643 25.3368 24.1506C25.3365 23.9389 25.1636 23.7657 24.9525 23.7654C24.7402 23.7651 24.5644 23.9397 24.5644 24.1509Z" fill="#FEFEFE"/>
<path fill-rule="evenodd" clip-rule="evenodd" d="M46.6201 11.4127C42.9136 7.29586 37.2897 13.5102 41.0145 17.6404C44.7265 21.7497 50.3243 15.54 46.6201 11.4127Z" fill="#FEFEFE"/>
<path fill-rule="evenodd" clip-rule="evenodd" d="M19.9462 18.939C24.7433 18.9955 25.4297 11.295 20.8715 10.2345C15.1422 8.89162 14.2346 18.8843 19.9462 18.939Z" fill="#FEFEFE"/>
<path fill-rule="evenodd" clip-rule="evenodd" d="M20.3069 28.9112C20.4557 28.9112 20.5762 29.0317 20.5762 29.1806C20.5762 29.3294 20.4557 29.4499 20.3069 29.4499C20.2698 29.4499 20.2342 29.4423 20.202 29.4287C20.1375 29.4015 20.0859 29.35 20.0587 29.2854C20.0451 29.2532 20.0376 29.2176 20.0376 29.1806C20.0376 29.1435 20.0451 29.1079 20.0587 29.0757C20.0859 29.0111 20.1375 28.9596 20.202 28.9324C20.2342 28.9188 20.2698 28.9112 20.3069 28.9112ZM23.6175 30.652C23.6175 30.6514 23.6172 30.6508 23.6169 30.6502C23.6033 30.5906 23.5851 30.5327 23.561 30.4776C23.5037 30.3473 23.4174 30.2341 23.3126 30.1406C23.303 30.1319 23.2929 30.1243 23.283 30.1162C23.2387 30.0797 23.1918 30.0476 23.1417 30.0192C23.1255 30.0099 23.1093 30.0007 23.0925 29.9923C23.0444 29.9688 22.9943 29.95 22.9422 29.9347C22.9234 29.9289 22.9054 29.9216 22.886 29.917C22.815 29.9005 22.7424 29.8898 22.6668 29.8898H22.1669C22.1591 29.8405 22.1467 29.7925 22.1304 29.7464C22.098 29.6543 22.0494 29.5695 21.9885 29.4953C21.897 29.3838 21.7774 29.2967 21.6407 29.2446C21.5498 29.2098 21.4511 29.191 21.348 29.191H20.8609C20.8617 29.1774 20.8629 29.164 20.8629 29.1501C20.8629 28.8742 20.637 28.6483 20.361 28.6483H20.3341H20.2797H20.2527C19.9767 28.6483 19.7509 28.8742 19.7509 29.1501C19.7509 29.164 19.7517 29.1774 19.7529 29.191H19.2658C19.0599 29.191 18.8708 29.2669 18.7257 29.3922C18.6165 29.4864 18.5323 29.6083 18.4833 29.7464C18.4671 29.7925 18.4546 29.8405 18.4468 29.8898H17.947C17.8714 29.8898 17.7987 29.9005 17.7278 29.917C17.7084 29.9216 17.6904 29.9289 17.6716 29.9347C17.6195 29.95 17.5694 29.9688 17.5213 29.9923C17.5042 30.0007 17.4883 30.0099 17.4721 30.0192C17.422 30.0476 17.375 30.0797 17.3307 30.1162C17.3209 30.1243 17.3108 30.1319 17.3012 30.1406C17.1002 30.3198 16.9705 30.5775 16.9705 30.8663V31.1286V31.3276V33.1801V37.202C16.9705 37.6048 17.2178 37.9529 17.5679 38.1015C17.6846 38.151 17.8129 38.1785 17.947 38.1785H22.6668C22.8009 38.1785 22.9291 38.151 23.0458 38.1015C23.1041 38.0768 23.1597 38.0464 23.2115 38.0111C23.3155 37.9407 23.4055 37.851 23.4759 37.747C23.5813 37.5912 23.643 37.4035 23.643 37.202V33.1801V31.3276V31.1286V30.8663C23.643 30.7924 23.6331 30.7212 23.6175 30.652Z" fill="#00A4CA"/>
<path fill-rule="evenodd" clip-rule="evenodd" d="M24.4118 32.2394C24.3866 32.1919 24.3536 32.1525 24.3107 32.1262C24.0964 31.9956 23.6542 32.2565 23.4657 32.3494C23.1735 32.4937 22.8793 32.6393 22.6221 32.8394C22.3652 33.0395 22.1449 33.3005 22.0484 33.6115C21.8197 34.3485 22.1808 35.2037 22.8584 35.5549C23.2621 35.764 23.7295 35.8167 24.1842 35.8098C24.329 35.8078 24.5022 35.782 24.563 35.6505C24.589 35.594 24.5876 35.5292 24.5856 35.4669C24.5569 34.5868 24.5285 33.7065 24.5001 32.8264C24.4952 32.6764 24.501 32.4071 24.4118 32.2394Z" fill="#FEFEFE"/>
<path fill-rule="evenodd" clip-rule="evenodd" d="M52.8477 29.3478C52.4148 27.7944 51.9094 26.2883 51.2182 24.8273C51.0404 24.3277 50.8217 23.8354 50.5411 23.3634C50.1704 22.7405 49.7158 22.1679 49.1835 21.6751C48.7723 21.2945 48.2889 20.9033 47.772 20.6441C47.6718 20.5581 47.5609 20.4851 47.4456 20.4176C46.3776 22.874 43.3297 24.3251 41.0144 21.7622C40.626 21.3316 40.3445 20.8781 40.1467 20.4162C39.5201 20.6583 38.9307 21.1254 38.4434 21.5769C37.9111 22.0698 37.4564 22.6423 37.0857 23.2652C36.8051 23.737 36.5865 24.2296 36.4087 24.7288C35.7171 26.1901 35.2121 27.6963 34.7791 29.2496C34.2556 31.1282 32.5539 37.4437 36.1223 37.5569C39.1636 37.6635 37.8509 34.6004 39.368 29.3209C39.3897 29.3293 39.4094 29.3432 39.4312 29.3516V29.905C39.43 29.9154 39.4283 29.9256 39.4271 29.936C39.4193 30.0029 39.4123 30.0701 39.4068 30.1375C39.3063 31.3599 39.3863 32.761 39.386 34.0071C39.1059 39.2079 38.9895 44.3867 39.0414 49.4018C39.0535 50.5779 39.9964 51.581 41.2666 51.581C42.0326 51.5735 42.5278 51.4136 42.851 50.9677C43.9216 49.7068 43.2277 45.7023 43.8107 34.5159C44.5836 49.2078 43.1542 51.581 46.3377 51.581C47.2525 51.581 48.0381 51.0221 48.3703 50.2251C48.5044 49.9428 48.582 49.6303 48.5852 49.3034C48.6373 44.2882 48.5206 39.1094 48.2406 33.9089C48.2406 32.6628 48.3205 31.2614 48.2197 30.0394C48.2142 29.9716 48.2076 29.9044 48.1997 29.8378C48.1986 29.8274 48.1968 29.8172 48.1954 29.8068V29.4498C48.2174 29.4416 48.2371 29.4277 48.2588 29.4191C49.776 34.6986 48.4633 37.7616 51.5046 37.6551C55.0729 37.5418 53.3713 31.2264 52.8477 29.3478Z" fill="#FEFEFE"/>
</g>
<defs>
<clipPath id="clip0">
<rect width="64" height="63.7104" fill="white"/>
</clipPath>
</defs>
</svg>
