<svg width="64" height="64" viewBox="0 0 64 64" fill="none" xmlns="http://www.w3.org/2000/svg">
<path fill-rule="evenodd" clip-rule="evenodd" d="M63.8541 31.9572C63.8541 49.5584 49.5853 63.8272 31.9841 63.8272C14.3829 63.8272 0.114075 49.5584 0.114075 31.9572C0.114075 14.356 14.3829 0.0871887 31.9841 0.0871887C49.5853 0.0871887 63.8541 14.356 63.8541 31.9572Z" fill="#008FAF"/>
<path fill-rule="evenodd" clip-rule="evenodd" d="M32.0639 63.8272C14.4627 63.8272 0.193939 49.5584 0.193939 31.9572C0.193939 14.356 14.4627 0.0871887 32.0639 0.0871887" fill="#00A4CA"/>
<path fill-rule="evenodd" clip-rule="evenodd" d="M13.0034 37.4067H34.8492C31.4451 35.9049 28.9435 32.7456 28.3409 28.9467H13.0034C11.2617 28.9467 9.83644 30.8502 9.83644 33.1767C9.83644 35.5032 11.2617 37.4067 13.0034 37.4067Z" fill="#FEFEFE"/>
<path fill-rule="evenodd" clip-rule="evenodd" d="M13.0034 26.288H28.2334C28.5144 22.7435 30.4392 19.6682 33.2496 17.8279H13.0034C11.2617 17.8279 9.83644 19.7314 9.83644 22.058C9.83644 24.3845 11.2617 26.288 13.0034 26.288Z" fill="#FEFEFE"/>
<path fill-rule="evenodd" clip-rule="evenodd" d="M41.4172 40.0656H13.0032C11.2615 40.0656 9.83623 41.9691 9.83623 44.2956C9.83623 46.6222 11.2615 48.5257 13.0032 48.5257H41.4172C43.1589 48.5257 44.5842 46.6222 44.5842 44.2956C44.5842 41.9691 43.1589 40.0656 41.4172 40.0656Z" fill="#FEFEFE"/>
<path fill-rule="evenodd" clip-rule="evenodd" d="M36.1141 31.9642C34.9573 30.813 34.3165 29.2814 34.31 27.6525C34.304 26.0243 34.9319 24.4935 36.0783 23.3415C37.2629 22.1509 38.8234 21.556 40.3864 21.556C41.9462 21.556 43.5083 22.1489 44.701 23.3359C47.0883 25.7115 47.1044 29.5801 44.7376 31.9586C42.3692 34.3374 38.501 34.3399 36.1141 31.9642ZM51.2652 36.703L47.3032 32.76C49.7924 29.399 49.5114 24.6179 46.4539 21.5745C43.0953 18.2324 37.6505 18.2392 34.3173 21.5886C32.7016 23.2119 31.8169 25.369 31.8256 27.6617C31.8342 29.9536 32.735 32.1071 34.3616 33.7256C36.038 35.3941 38.2346 36.2277 40.4287 36.2277C42.2368 36.2277 44.0376 35.6525 45.5507 34.521L49.5123 38.4636L51.2652 36.703Z" fill="#FEFEFE"/>
</svg>
