<svg width="64" height="64" viewBox="0 0 64 64" fill="none" xmlns="http://www.w3.org/2000/svg">
<path d="M31.916 63.4961C14.4462 63.4961 0.335968 49.3858 0.335968 31.916C0.335968 14.4462 14.4462 0.167969 31.916 0.167969" fill="#00A5CB"/>
<path d="M31.916 0.167969C49.3858 0.167969 63.4961 14.2782 63.4961 31.748C63.4961 49.2178 49.3858 63.4961 31.916 63.4961" fill="#0190B0"/>
<path d="M26.2047 16.6299C27.9674 16.6299 29.3963 15.1258 29.3963 13.2703C29.3963 11.4149 27.9674 9.91077 26.2047 9.91077C24.4421 9.91077 23.0131 11.4149 23.0131 13.2703C23.0131 15.1258 24.4421 16.6299 26.2047 16.6299Z" fill="white"/>
<path d="M39.643 16.6299C41.4057 16.6299 42.8346 15.1258 42.8346 13.2703C42.8346 11.4149 41.4057 9.91077 39.643 9.91077C37.8804 9.91077 36.4514 11.4149 36.4514 13.2703C36.4514 15.1258 37.8804 16.6299 39.643 16.6299Z" fill="white"/>
<path d="M43.8425 18.6457H35.2756C33.2598 18.6457 32.252 19.4856 31.916 20.4935C31.4121 19.1496 31.0761 18.6457 29.5643 18.6457H21.6693C19.8215 18.6457 19.4856 19.9895 18.9816 21.6693C18.9816 21.6693 16.6299 32.252 16.4619 32.7559C15.958 33.9318 17.6378 34.9397 18.4777 32.7559C19.6535 28.8924 20.9974 25.1969 20.9974 25.1969C21.5013 24.189 22.1732 24.525 21.8373 25.1969L18.4777 38.8032L21.8373 38.6352V52.2415C21.8373 53.9213 28.7244 54.0893 29.5643 52.5774V44.5145H27.3806L29.5643 36.1155C29.7323 35.6116 29.2283 35.4436 29.0604 36.1155C29.0604 36.1155 28.2205 38.4672 27.5486 40.8189C27.0446 42.1628 25.8688 41.6588 26.2047 40.8189C26.3727 40.483 27.8845 33.9318 27.8845 33.9318C28.2205 32.9239 28.3885 32.084 29.5643 32.084H34.6037C35.7795 32.084 35.7795 32.5879 36.2835 33.9318L37.9633 40.8189C38.2992 41.6588 36.9554 42.1628 36.6194 40.8189L35.2756 36.2835C34.9396 35.7795 34.6037 35.9475 34.6037 36.2835L36.9554 44.6824H34.9396V52.4095C34.9396 54.2572 43.8425 54.2572 43.8425 52.4095V25.1969C44.3465 24.357 44.6824 24.357 45.1864 25.1969V33.9318C45.6903 35.9475 47.3701 34.9397 47.706 34.0998V21.6693C47.3701 19.1496 45.8583 18.6457 43.8425 18.6457ZM31.916 30.7402C30.4042 30.7402 29.0604 29.3963 29.0604 27.8845C29.0604 26.2047 30.2362 25.0289 31.916 25.0289C33.4278 25.0289 34.7717 26.3727 34.7717 27.8845C34.7717 29.3963 33.4278 30.7402 31.916 30.7402Z" fill="white"/>
</svg>
