<svg width="64" height="64" viewBox="0 0 64 64" fill="none" xmlns="http://www.w3.org/2000/svg">
<path fill-rule="evenodd" clip-rule="evenodd" d="M63.8434 32.0075C63.8434 49.5489 49.6235 63.7688 32.082 63.7688C14.5406 63.7688 0.320312 49.5489 0.320312 32.0075C0.320312 14.466 14.5406 0.246094 32.082 0.246094C49.6235 0.246094 63.8434 14.466 63.8434 32.0075Z" fill="#008FAF"/>
<path fill-rule="evenodd" clip-rule="evenodd" d="M32.1347 63.7685C14.5933 63.7685 0.373322 49.5485 0.373322 32.0071C0.373322 14.4657 14.5933 0.245392 32.1347 0.245392" fill="#00A4CA"/>
<path fill-rule="evenodd" clip-rule="evenodd" d="M41.232 33.6765H22.932C22.1383 33.6765 21.4962 33.0738 21.4962 32.3307C21.4962 31.5873 22.1383 30.9849 22.932 30.9849H41.232C42.0257 30.9849 42.6679 31.5873 42.6679 32.3307C42.6679 33.0738 42.0257 33.6765 41.232 33.6765ZM41.232 29.2551H22.932C22.1383 29.2551 21.4962 28.6527 21.4962 27.9093C21.4962 27.1663 22.1383 26.5635 22.932 26.5635H41.232C42.0257 26.5635 42.6679 27.1663 42.6679 27.9093C42.6679 28.6527 42.0257 29.2551 41.232 29.2551ZM22.932 20.72H34.0991C34.8928 20.72 35.5349 21.3227 35.5349 22.0658C35.5349 22.8092 34.8928 23.412 34.0991 23.412H22.932C22.1383 23.412 21.4962 22.8092 21.4962 22.0658C21.4962 21.3227 22.1383 20.72 22.932 20.72ZM38.795 11.9607H19.1611C17.39 11.9607 15.9274 13.4236 15.9274 15.1947V49.3417C15.9274 51.1124 17.39 52.5753 19.1611 52.5753H45.1082C46.8792 52.5753 48.3422 51.1124 48.3422 49.3417V21.3542L38.795 11.9607Z" fill="#FEFEFE"/>
<path fill-rule="evenodd" clip-rule="evenodd" d="M38.9067 11.829V21.2225H48.4539L38.9067 11.829Z" fill="#DBDADA"/>
<path fill-rule="evenodd" clip-rule="evenodd" d="M48.377 21.2224H38.9835L48.377 33.5032V21.2224Z" fill="#EEEEEE"/>
<path fill-rule="evenodd" clip-rule="evenodd" d="M42.2703 43.2666C40.4667 43.2666 39.0049 41.8047 39.0049 40.0011C39.0049 38.1976 40.4667 36.7353 42.2703 36.7353C44.0739 36.7353 45.5358 38.1976 45.5358 40.0011C45.5358 41.8047 44.0739 43.2666 42.2703 43.2666ZM46.4531 38.642L46.3692 37.0228L44.8553 36.4428L43.836 35.1823L42.2703 35.6029L40.7047 35.1823L39.685 36.4428L38.1714 37.0228L38.0875 38.642L37.2035 40.0011L38.0875 41.3603L38.1714 42.9791L39.685 43.5591L40.7047 44.8199L42.2703 44.3991L43.836 44.8199L44.8553 43.5591L46.3692 42.9791L46.4531 41.3603L47.3372 40.0011L46.4531 38.642Z" fill="#008FAF"/>
<path fill-rule="evenodd" clip-rule="evenodd" d="M39.865 51.3615L38.9838 49.2246L36.9091 50.2435L39.7225 42.8069L42.6781 43.9249L39.865 51.3615Z" fill="#008FAF"/>
<path fill-rule="evenodd" clip-rule="evenodd" d="M44.7063 51.3615L45.5875 49.2246L47.6623 50.2435L44.8488 42.8069L41.8932 43.9249L44.7063 51.3615Z" fill="#008FAF"/>
<path fill-rule="evenodd" clip-rule="evenodd" d="M44.2639 40.001C44.2639 41.102 43.3712 41.9948 42.2702 41.9948C41.1692 41.9948 40.2764 41.102 40.2764 40.001C40.2764 38.9 41.1692 38.0072 42.2702 38.0072C43.3712 38.0072 44.2639 38.9 44.2639 40.001Z" fill="#008FAF"/>
</svg>
