<svg width="64" height="64" viewBox="0 0 64 64" fill="none" xmlns="http://www.w3.org/2000/svg">
<path fill-rule="evenodd" clip-rule="evenodd" d="M63.9857 32C63.9857 49.5309 49.6919 63.7425 32.0597 63.7425C14.4275 63.7425 0.134033 49.5309 0.134033 32C0.134033 14.4692 14.4275 0.257477 32.0597 0.257477C49.6919 0.257477 63.9857 14.4692 63.9857 32Z" fill="#008FAF"/>
<path fill-rule="evenodd" clip-rule="evenodd" d="M32.1128 63.7424C14.4806 63.7424 0.186798 49.5307 0.186798 31.9999C0.186798 14.469 14.4806 0.257721 32.1128 0.257721" fill="#00A4CA"/>
<path fill-rule="evenodd" clip-rule="evenodd" d="M20.3951 47.4626C20.3577 47.6167 20.2626 47.7256 20.1202 47.7778C19.8864 47.8639 19.6966 47.7601 19.579 47.5567C19.559 47.5225 19.5434 47.4854 19.5316 47.4475L19.3333 44.7025C19.3182 44.6543 19.2468 44.6642 19.2449 44.715L19.195 46.3849L19.482 53.5433C19.5161 53.7964 19.3178 54.0215 19.061 54.0215H18.4728C18.2586 54.0215 18.0781 53.863 18.0515 53.6518L17.9131 47.2452L17.7751 53.6518C17.7485 53.863 17.5676 54.0215 17.3538 54.0215H16.7656C16.5084 54.0215 16.3105 53.7964 16.3446 53.5433L16.6316 46.3849L16.5813 44.715C16.5798 44.6642 16.5084 44.6543 16.4929 44.7025L16.295 47.4475C16.2828 47.4854 16.2672 47.5225 16.2476 47.5567C16.1296 47.7601 15.9402 47.8639 15.7064 47.7778C15.564 47.7256 15.4685 47.6167 15.4315 47.4626C15.4082 47.3673 15.4134 47.2676 15.4408 47.1735L16.0175 42.8726C16.1348 42.4684 16.507 42.1903 16.9302 42.1903H18.8964C19.3196 42.1903 19.6918 42.4684 19.8091 42.8726L20.3858 47.1735C20.4132 47.2676 20.418 47.3673 20.3951 47.4626Z" fill="#FEFEFE"/>
<path fill-rule="evenodd" clip-rule="evenodd" d="M17.9133 39.5403C18.5566 39.5403 19.0782 40.0589 19.0782 40.6985C19.0782 41.3381 18.5566 41.8568 17.9133 41.8568C17.2699 41.8568 16.7483 41.3381 16.7483 40.6985C16.7483 40.0589 17.2699 39.5403 17.9133 39.5403Z" fill="#FEFEFE"/>
<path fill-rule="evenodd" clip-rule="evenodd" d="M36.7465 42.2666C36.6799 42.5425 36.509 42.7382 36.2541 42.832C35.8346 42.9861 35.4949 42.8 35.2841 42.4358C35.2482 42.3737 35.2204 42.3075 35.199 42.2394L34.8438 37.3203C34.8165 37.2334 34.6881 37.2511 34.6855 37.342L34.5952 40.3352L35.1102 53.1647C35.1709 53.6185 34.8161 54.0213 34.3555 54.0213H33.3016C32.9176 54.0213 32.5939 53.7377 32.5461 53.3589L32.2986 41.8775L32.0508 53.3589C32.0031 53.7377 31.6794 54.0213 31.2957 54.0213H30.2414C29.7812 54.0213 29.426 53.6185 29.4871 53.1647L30.002 40.3352L29.9118 37.342C29.9092 37.2511 29.7808 37.2334 29.7534 37.3203L29.3983 42.2394C29.3765 42.3075 29.3487 42.3737 29.3132 42.4358C29.1023 42.8 28.7624 42.9861 28.3432 42.832C28.088 42.7382 27.9174 42.5425 27.8505 42.2666C27.8094 42.096 27.8183 41.9172 27.8671 41.7488L28.9011 34.0404C29.1112 33.3162 29.7782 32.8174 30.5366 32.8174H34.0607C34.8191 32.8174 35.4857 33.3162 35.6962 34.0404L36.7302 41.7488C36.779 41.9172 36.7879 42.096 36.7465 42.2666Z" fill="#FEFEFE"/>
<path fill-rule="evenodd" clip-rule="evenodd" d="M32.2986 28.0682C33.4517 28.0682 34.3865 28.9977 34.3865 30.1442C34.3865 31.2906 33.4517 32.2201 32.2986 32.2201C31.1455 32.2201 30.2106 31.2906 30.2106 30.1442C30.2106 28.9977 31.1455 28.0682 32.2986 28.0682Z" fill="#FEFEFE"/>
<path fill-rule="evenodd" clip-rule="evenodd" d="M55.513 35.4047C55.4076 35.8417 55.1368 36.1514 54.7332 36.2996C54.0688 36.5439 53.5309 36.2496 53.1968 35.6725C53.1398 35.5747 53.0962 35.4691 53.0622 35.3613L52.4998 27.5706C52.4562 27.4334 52.2531 27.4614 52.249 27.6056L52.1062 32.346L52.9216 52.6645C53.0178 53.3832 52.4558 54.0214 51.7267 54.0214H50.0571C49.4493 54.0214 48.9366 53.5719 48.8607 52.9724L48.4686 34.7883L48.0764 52.9724C48.0006 53.5719 47.4879 54.0214 46.8804 54.0214H45.2109C44.4817 54.0214 43.9194 53.3832 44.016 52.6645L44.8313 32.346L44.6885 27.6056C44.6841 27.4614 44.481 27.4334 44.4377 27.5706L43.8754 35.3613C43.841 35.4691 43.797 35.5747 43.7404 35.6725C43.4063 36.2496 42.868 36.5439 42.2044 36.2996C41.8004 36.1514 41.53 35.8417 41.4241 35.4047C41.359 35.1344 41.3727 34.8512 41.4504 34.5845L43.0878 22.3767C43.4211 21.2291 44.4769 20.4394 45.6781 20.4394H51.2594C52.4603 20.4394 53.5164 21.2291 53.8494 22.3767L55.4871 34.5845C55.5648 34.8512 55.5785 35.1344 55.513 35.4047Z" fill="#FEFEFE"/>
<path fill-rule="evenodd" clip-rule="evenodd" d="M48.4686 12.9178C50.295 12.9178 51.7755 14.3898 51.7755 16.2057C51.7755 18.0213 50.295 19.4933 48.4686 19.4933C46.6422 19.4933 45.1617 18.0213 45.1617 16.2057C45.1617 14.3898 46.6422 12.9178 48.4686 12.9178Z" fill="#FEFEFE"/>
</svg>
