<svg width="64" height="64" viewBox="0 0 64 64" fill="none" xmlns="http://www.w3.org/2000/svg">
<path d="M31.916 63.4961C14.4462 63.4961 0.335957 49.3858 0.335957 31.916C0.335957 14.4462 14.4462 0.167969 31.916 0.167969" fill="#00A5CB"/>
<path d="M31.916 0.167969C49.3858 0.167969 63.4961 14.2782 63.4961 31.748C63.4961 49.2178 49.3858 63.4961 31.916 63.4961" fill="#0190B0"/>
<path d="M13.7743 50.7296C16.2791 50.7296 18.3097 48.6991 18.3097 46.1942C18.3097 43.6894 16.2791 41.6588 13.7743 41.6588C11.2694 41.6588 9.23885 43.6894 9.23885 46.1942C9.23885 48.6991 11.2694 50.7296 13.7743 50.7296Z" fill="white"/>
<path d="M29.3963 7.2231C30.4168 7.2231 31.2441 6.39582 31.2441 5.37533C31.2441 4.35483 30.4168 3.52756 29.3963 3.52756C28.3758 3.52756 27.5486 4.35483 27.5486 5.37533C27.5486 6.39582 28.3758 7.2231 29.3963 7.2231Z" fill="white"/>
<path d="M34.4357 7.2231C35.4562 7.2231 36.2835 6.39582 36.2835 5.37533C36.2835 4.35483 35.4562 3.52756 34.4357 3.52756C33.4152 3.52756 32.5879 4.35483 32.5879 5.37533C32.5879 6.39582 33.4152 7.2231 34.4357 7.2231Z" fill="white"/>
<path d="M24.021 23.0131L24.357 24.6929C25.1969 24.357 25.8688 24.021 26.7087 23.6851C30.9081 22.3412 35.1076 22.6772 38.9711 24.6929H39.1391L39.4751 23.0131C35.2756 20.9974 30.7402 20.6614 26.2047 22.1732C25.3648 22.3412 24.6929 22.6772 24.021 23.0131Z" fill="white"/>
<path d="M50.3937 38.2992C49.7218 32.9239 46.5302 27.8845 41.9948 24.6929L41.6588 26.5407C45.5223 29.5643 48.042 33.9318 48.7139 38.4672C49.3858 43.1706 47.706 47.5381 44.3465 50.7297C42.4987 52.4094 39.4751 53.2493 37.1234 52.7454C35.7795 52.4094 34.0997 51.7375 33.0919 49.5538C32.7559 48.7139 32.5879 47.874 32.252 47.0341C32.084 46.1942 31.916 45.5223 31.916 44.6824C32.084 43.8425 32.252 42.8346 32.7559 41.9947C32.9239 41.4908 33.0919 41.1549 33.4278 40.8189C33.5958 40.4829 33.9318 40.147 34.2677 39.979C34.9396 39.4751 35.6116 39.1391 36.1155 38.6352C37.1234 37.7953 37.7953 36.6194 38.2992 35.4436C39.811 32.4199 40.4829 29.2283 40.9869 26.2047L41.3228 24.357C41.8268 21.1654 42.3307 17.9738 42.6667 14.1102V13.6063C43.0026 10.9186 43.1706 7.72703 41.1549 5.54331C39.811 4.03149 37.7953 3.86352 35.9475 4.03149C36.4514 4.36745 36.6194 4.87139 36.6194 5.54331V5.71128C37.9633 5.71128 39.1391 5.87926 39.979 6.71916C41.6588 8.39895 41.3228 11.0866 41.1549 13.4383V13.9423C40.8189 17.4698 40.4829 20.6614 39.979 23.5171L39.643 25.1968C39.1391 28.3884 38.4672 31.748 36.9554 34.6037C36.4514 35.4436 35.9475 36.4514 35.1076 37.2913C34.9396 37.4593 34.7717 37.4593 34.6037 37.6273C34.4357 37.6273 34.2677 37.7953 34.0997 37.9633C33.2598 38.4672 32.252 38.6352 31.2441 38.4672C31.0761 38.4672 30.9081 38.4672 30.7402 38.2992C28.7244 37.7953 26.7087 35.9475 25.8688 33.7638C24.8609 31.0761 24.189 28.3885 23.685 25.7008L23.3491 23.3491L22.8451 19.8215C22.6772 18.9816 22.6772 18.3097 22.5092 17.4698C22.0052 14.1102 21.3333 10.5827 22.8451 7.89501C23.853 6.04724 25.5328 5.37533 27.2126 5.20735V5.03937C27.2126 4.36745 27.5486 3.86352 28.0525 3.52756C25.0289 3.52756 22.5092 4.87139 21.3333 7.2231C19.6535 10.5827 20.3255 14.4462 20.8294 17.9738C20.9974 18.8136 21.1654 19.4856 21.1654 20.3255C21.3333 21.6693 21.5013 23.0131 21.8373 24.5249L22.1732 26.3727C22.6772 29.2283 23.3491 31.916 24.357 34.6037C24.6929 35.6115 25.3648 36.4514 26.0367 37.2913C26.3727 37.6273 26.8766 37.9633 27.2126 38.4672C27.7165 38.9711 28.3885 39.3071 28.7244 39.979C29.2283 40.6509 29.9003 41.4908 30.2362 42.4987C30.5722 43.6745 30.5722 45.0184 30.7402 46.1942C30.9081 47.706 31.2441 49.0499 31.916 50.3937C32.9239 52.5774 34.7717 54.0892 37.1234 54.5932C37.7953 54.7612 38.2992 54.7612 38.9711 54.7612C41.3228 54.7612 43.8425 53.7533 45.6903 52.2415C49.3858 48.378 51.2336 43.5066 50.3937 38.2992Z" fill="white"/>
<path d="M13.7743 33.2599C12.5984 35.7795 12.0945 38.2992 12.2625 40.6509L13.9423 40.483C13.7743 38.4672 14.2782 36.1155 15.2861 33.9318C16.7979 30.9082 18.8136 28.5565 21.3333 26.5407L20.9974 24.6929C18.1417 26.8767 15.4541 29.7323 13.7743 33.2599Z" fill="white"/>
</svg>
