<svg width="64" height="64" viewBox="0 0 64 64" fill="none" xmlns="http://www.w3.org/2000/svg">
<path d="M32.252 63.832C14.7822 63.832 0.503937 49.5538 0.503937 32.084C0.503937 14.6142 14.7822 0.503937 32.252 0.503937" fill="#00A5CB"/>
<path d="M32.252 0.503937C49.7218 0.503937 63.832 14.6142 63.832 32.084C63.832 49.5538 49.7218 63.832 32.252 63.832" fill="#0190B0"/>
<path d="M43.0026 19.8215L44.3465 18.4777C43.6745 17.4698 42.4987 16.7979 41.1549 16.7979H39.1391C38.8031 15.1181 37.4593 13.9423 35.7795 13.9423H33.7638V13.7743C33.7638 12.5984 32.7559 11.7585 31.748 11.7585H31.4121C30.2362 11.7585 29.3963 12.7664 29.3963 13.7743V13.9423H27.2126C25.5328 13.9423 24.189 15.1181 23.853 16.7979H21.8373C19.6535 16.7979 17.8058 18.6457 17.8058 20.8294V46.6982C17.8058 48.8819 19.6535 50.7297 21.8373 50.7297H41.1549C43.3386 50.7297 45.1863 48.8819 45.1863 46.6982V30.2362L34.6037 40.8189L28.2205 34.4357L42.6667 19.9895L45.1863 22.5092V21.8373L43.0026 19.8215ZM32.7559 41.1549L26.8766 42.8347L26.0367 41.8268L27.7165 36.2835L32.7559 41.1549ZM31.4121 14.9501C30.7402 14.9501 30.2362 14.4462 30.2362 13.7743C30.2362 13.1024 30.7402 12.5984 31.4121 12.5984C32.084 12.5984 32.5879 13.1024 32.5879 13.7743C32.5879 14.6142 32.084 14.9501 31.4121 14.9501Z" fill="white"/>
<path d="M29.2283 34.6037L34.4357 39.811L45.0184 29.0604L47.706 26.3727L42.4987 21.3333L29.2283 34.6037Z" fill="white"/>
<path d="M27.3806 41.8268L31.2441 40.6509L28.3885 37.7953L27.2126 41.6588L27.3806 41.8268Z" fill="white"/>
<path d="M44.0105 19.8215L48.042 15.79C48.5459 15.2861 49.8898 15.1181 50.3937 15.79L53.0814 18.4777C53.7533 19.1496 53.5853 20.3255 53.0814 20.8294L49.0499 24.8609L44.0105 19.8215Z" fill="white"/>
</svg>
