<svg width="50" height="59" viewBox="0 0 50 59" fill="none" xmlns="http://www.w3.org/2000/svg">
<rect width="50" height="59" fill="#EC9638"/>
<path fill-rule="evenodd" clip-rule="evenodd" d="M13.2933 44.3184C12.7623 44.8494 11.8932 44.8494 11.3633 44.3184L10.3983 43.3534C9.86725 42.8224 9.86725 41.9534 10.3983 41.4234L22.9452 28.8754C23.4762 28.3454 24.3452 28.3454 24.8752 28.8754L25.8413 29.8404C26.3713 30.3714 26.3713 31.2404 25.8413 31.7704L13.2933 44.3184Z" fill="#FFFFFE"/>
<path fill-rule="evenodd" clip-rule="evenodd" d="M28.7361 17.293L20.0491 25.979L28.7371 34.667L37.4231 25.98L28.7361 17.293Z" fill="#FFFFFE"/>
<path fill-rule="evenodd" clip-rule="evenodd" d="M40.3186 26.9453C39.7876 26.4143 38.9186 26.4143 38.3886 26.9453L29.7026 35.6323C29.1716 36.1633 29.1716 37.0323 29.7026 37.5623C30.2326 38.0933 31.1026 38.0933 31.6326 37.5623L40.3186 28.8753C40.8486 28.3453 40.8486 27.4753 40.3186 26.9453" fill="#FFFFFE"/>
<path fill-rule="evenodd" clip-rule="evenodd" d="M27.7712 14.3975C27.2402 13.8675 26.3712 13.8675 25.8412 14.3975L17.1532 23.0835C16.6232 23.6135 16.6232 24.4835 17.1532 25.0135C17.6842 25.5445 18.5532 25.5445 19.0842 25.0135L27.7712 16.3275C28.3022 15.7975 28.3022 14.9285 27.7712 14.3975" fill="#FFFFFE"/>
</svg>
