<svg width="50" height="59" viewBox="0 0 50 59" fill="none" xmlns="http://www.w3.org/2000/svg">
<rect width="50" height="59" fill="#B5B5B5"/>
<path fill-rule="evenodd" clip-rule="evenodd" d="M18.0493 15.38C18.4963 13.338 16.3863 11.439 14.5843 12.163C12.7823 12.745 12.0383 15.424 13.3893 16.88C14.8013 18.533 17.7913 17.668 18.0493 15.38" fill="#FFFFFE"/>
<path fill-rule="evenodd" clip-rule="evenodd" d="M26.3872 27.0201C25.1512 24.9971 23.5192 23.2731 22.1392 21.3581C21.2462 20.3241 20.5052 18.6941 18.9932 18.7191C16.4812 18.7461 13.9242 18.4921 11.4452 18.9881C9.87624 19.2311 8.96124 20.9221 9.02024 22.5141C9.02724 25.6871 8.95324 28.8631 9.05124 32.0311C9.07224 33.0611 10.4592 33.3591 11.0042 32.6101C11.3882 32.0651 11.2942 31.3561 11.3182 30.7211C11.2972 28.2991 11.3142 25.8821 11.3082 23.4601C11.5142 23.4631 11.9332 23.4701 12.1392 23.4741C12.1602 30.8591 12.1532 38.2451 12.1422 45.6301C12.1702 46.2791 12.1112 47.0891 12.6772 47.5151C13.4392 48.2871 15.0072 47.8801 15.1222 46.6601C15.1992 42.0961 15.1082 37.5271 15.1682 32.9691H15.8322C15.8732 37.4271 15.8322 41.8831 15.8522 46.3431C15.8102 47.6161 17.1902 48.2121 18.1712 47.7541C18.8312 47.5001 18.9372 46.6481 18.9932 46.0041C19.0032 37.9981 18.9752 29.9941 19.0032 21.9891C20.8262 24.0671 22.3702 26.4111 24.2042 28.4791C25.0842 29.6611 26.9742 28.3971 26.3872 27.0201" fill="#FFFFFE"/>
<path fill-rule="evenodd" clip-rule="evenodd" d="M38.4117 15.0241C38.5977 12.9971 36.3727 11.3751 34.6577 12.2361C32.7677 12.8851 32.3837 15.8481 33.9417 17.1061C35.5167 18.5761 38.5177 17.3861 38.4117 15.0241" fill="#FFFFFE"/>
<path fill-rule="evenodd" clip-rule="evenodd" d="M42.1922 22.8567C42.1332 21.5397 41.8392 19.8867 40.5672 19.3117C38.5452 18.4077 36.2922 18.7857 34.1582 18.6917C32.8022 18.7517 31.1052 18.3647 30.1832 19.7287C28.3982 22.0657 26.5222 24.3387 24.8002 26.7307C23.9482 27.9427 25.5372 29.6447 26.6482 28.6677C28.6042 26.5997 30.1482 24.1287 32.0452 21.9947C32.0942 30.1077 32.0212 38.2217 32.0792 46.3327C31.9852 48.2407 34.8982 48.4567 35.1712 46.6507C35.2692 42.0717 35.1392 37.4887 35.2342 32.9117C35.4222 32.9377 35.7992 32.9957 35.9882 33.0217C36.1352 37.4587 35.9812 41.9037 36.0582 46.3417C36.1072 46.8827 36.1172 47.6087 36.7392 47.7477C37.8432 48.3187 39.1502 47.3337 39.0412 46.0267C39.0512 38.5047 39.0412 30.9777 39.0442 23.4537C39.2552 23.4577 39.6702 23.4677 39.8802 23.4737C39.9322 26.3237 39.8202 29.1787 39.9282 32.0257C40.0022 33.4887 42.2572 33.2427 42.1532 31.8027C42.2412 28.8237 42.1602 25.8377 42.1922 22.8567" fill="#FFFFFE"/>
</svg>
