<svg width="51" height="59" viewBox="0 0 51 59" fill="none" xmlns="http://www.w3.org/2000/svg">
<rect width="50" height="59" fill="#EC9638"/>
<path fill-rule="evenodd" clip-rule="evenodd" d="M12.6509 30.1209L25.8119 22.1979L38.9729 30.1209V43.2819H29.1889V31.9109H22.4349V43.2819H12.6509V30.1209ZM15.3469 31.9109H19.8519V36.6869H15.3469V31.9109ZM31.7709 31.9109H36.2759V36.6869H31.7709V31.9109Z" fill="#FFFFFE"/>
<path fill-rule="evenodd" clip-rule="evenodd" d="M10 29.579L25.812 20.06L41.623 29.579V26.066L35.722 22.513V16H32.3V20.453L25.812 16.546L10 26.066V29.579Z" fill="#FFFFFE"/>
<path d="M44.625 18.875L19.125 44.375L7.4375 32.6875L10.4338 29.6913L19.125 38.3613L41.6288 15.8788L44.625 18.875Z" fill="#636463"/>
</svg>
