<svg width="51" height="60" viewBox="0 0 51 60" fill="none" xmlns="http://www.w3.org/2000/svg">
<rect width="50" height="59" fill="#B5B5B5"/>
<path fill-rule="evenodd" clip-rule="evenodd" d="M30.2595 39.77C30.2595 41.161 31.6835 42.3 33.4225 42.3C35.1605 42.3 36.5845 41.161 36.5795 39.15V34.71C36.5845 33.939 35.1605 34.71 33.4225 34.71C31.6835 34.71 30.2595 35.849 30.2595 37.24V39.77Z" fill="#FFFFFE"/>
<path fill-rule="evenodd" clip-rule="evenodd" d="M16.3445 39.7725C16.3445 41.1635 17.7685 42.3025 19.5075 42.3025C21.2455 42.3025 22.6695 41.1635 22.6695 39.7725V37.2425C22.6695 35.8515 21.2455 34.7125 19.5075 34.7125C17.7685 34.7125 16.3445 34.5865 16.3445 35.9775V39.7725Z" fill="#FFFFFE"/>
<path fill-rule="evenodd" clip-rule="evenodd" d="M42.9095 30.915C42.9095 31.611 42.3395 32.18 41.6445 32.18H36.5845C35.8885 32.18 35.3195 31.611 35.3195 30.915V25.855C35.3195 25.16 35.8885 24.59 36.5845 24.59H41.6445C42.3395 24.59 42.9095 25.16 42.9095 25.855V30.915Z" fill="#FFFFFE"/>
<path fill-rule="evenodd" clip-rule="evenodd" d="M9.11277 23.3301C8.85977 23.1191 8.69777 27.9531 12.5208 30.6991C16.3448 33.4451 16.4108 25.0631 13.9358 26.6931C11.4588 28.3211 9.36577 23.5401 9.11277 23.3301" fill="#FFFFFE"/>
<path fill-rule="evenodd" clip-rule="evenodd" d="M39.5394 18.9531C40.0584 17.7001 32.4744 17.8311 32.6004 24.0961C32.7254 30.3611 37.8604 28.0541 37.0524 24.6851C36.2424 21.3201 39.0194 20.2071 39.5394 18.9531" fill="#FFFFFE"/>
<path fill-rule="evenodd" clip-rule="evenodd" d="M12.5495 28.385C12.5495 34.673 18.7795 39.77 26.4645 39.77C34.1495 39.77 40.3795 34.673 40.3795 28.385C40.3795 22.097 34.1495 17 26.4645 17C18.7795 17 12.5495 22.097 12.5495 28.385V28.385ZM20.1395 20.795C20.1395 20.795 23.2835 19.53 25.8135 19.53C28.3435 19.53 31.5245 20.795 31.5245 20.795V23.325C31.5245 23.325 28.3435 22.06 25.8135 22.06C23.2835 22.06 20.1395 23.325 20.1395 23.325V20.795Z" fill="#FFFFFE"/>
<path d="M44.625 18.875L19.125 44.375L7.4375 32.6875L10.4338 29.6913L19.125 38.3613L41.6288 15.8788L44.625 18.875Z" fill="#636463"/>
</svg>
