<svg width="51" height="59" viewBox="0 0 51 59" fill="none" xmlns="http://www.w3.org/2000/svg">
<rect width="50" height="59" fill="#B5B5B5"/>
<path fill-rule="evenodd" clip-rule="evenodd" d="M28.488 30.999C28.547 29.076 29.381 26.855 29.381 26.855C29.381 26.855 29.933 26.509 30.282 25.812C30.636 25.117 30.473 24.062 30.473 24.062C30.473 24.062 30.205 23.855 30.246 23.489C30.315 22.907 30.546 21.914 30.636 20.663C30.671 20.09 30.681 19.826 30.633 19.162C30.407 16.122 27.984 15.791 26.87 15.483C24.881 15.269 24.227 15.483 22.555 15.585C20.882 15.687 19.604 15 19.604 15C19.604 15 19.149 17.2 19.292 19.429C19.431 21.652 19.793 23.652 19.793 23.652C19.793 23.652 19.253 23.774 19.375 24.927C19.498 26.079 20.426 26.733 20.426 26.733C20.426 26.733 21.942 30.457 21.612 31.778C21.281 33.098 17.948 34.528 15.61 36.591C12.56 38.415 12 44.465 12 44.465L38.651 44.432C38.651 44.432 38.201 39.3 36.362 37.069C34.515 34.838 29.386 34.1 28.918 32.579C28.806 32.2 28.47 31.63 28.488 30.999Z" fill="#FFFFFE"/>
<path d="M44.625 18.875L19.125 44.375L7.4375 32.6875L10.4338 29.6913L19.125 38.3613L41.6288 15.8788L44.625 18.875Z" fill="#636463"/>
</svg>
